<svg width="28" height="22" viewBox="0 0 28 22" xmlns="http://www.w3.org/2000/svg"><path d="M16.825 20.34l.654-.367-.654.367zm2.224-1.32l.654-.367-.654.367zm-.47 1.803l-.382-.645.382.645zM10.9 1l.655-.367a.75.75 0 00-1.037-.278L10.9 1zm1.713 3.047l.383.645a.75.75 0 00.271-1.012l-.654.367zM9.202 6.07l-.382-.645.382.645zM6.27 9.84l.115.742a.75.75 0 00.609-.545l-.724-.196zM1 5.857l-.115-.74a.75.75 0 00-.634.778L1 5.856zm6.49-2.834l.383.646-.383-.646zm3.685 17.318l-.654-.367.654.367zm-2.224-1.32l.653.368-.653-.368zm.47 1.803l.382-.645-.382.645zM17.1 1l.382-.645a.75.75 0 00-1.037.278L17.1 1zm-1.713 3.047l-.654-.367a.75.75 0 00.271 1.012l.383-.645zm3.41 2.023l.382-.645-.382.645zm2.932 3.77l-.724.197a.75.75 0 00.608.545l.116-.741zM27 5.857l.75.038a.75.75 0 00-.635-.779L27 5.856zm-6.49-2.834l.383-.645-.383.645zm-2.313 17.156a.516.516 0 01-.718-.205l-1.308.735a2.016 2.016 0 002.79.76l-.764-1.29zm.765 1.29c.973-.577 1.291-1.837.741-2.815l-1.307.735a.59.59 0 01-.2.79l.766 1.29zm-8.716-20.1l1.712 3.047 1.308-.735L11.553.633l-1.307.734zm1.984 2.034L8.82 5.425l.765 1.29 3.41-2.023-.765-1.29zM8.82 5.425c-1.28.758-2.094 1.812-2.585 2.66a7.996 7.996 0 00-.525 1.082 6.12 6.12 0 00-.162.47l-.001.004v.002l.723.198.724.197v.001c-.001.001 0 0 0 0l.003-.012.019-.06a6.496 6.496 0 01.517-1.13c.406-.701 1.058-1.533 2.052-2.122l-.765-1.29zM6.27 9.84a96.676 96.676 0 01-.114-.742h.002a.756.756 0 01-.065.008 4.422 4.422 0 01-1.05-.036c-.653-.103-1.406-.377-1.977-1.038l-1.135.98c.878 1.018 2.011 1.403 2.88 1.54a5.92 5.92 0 001.43.046 2.964 2.964 0 00.128-.015l.01-.001a.094.094 0 00.005-.001L6.27 9.84zM3.066 8.033c-.68-.788-1.01-1.39-1.17-1.766a2.442 2.442 0 01-.135-.398.833.833 0 01-.013-.07v-.001.017l.001.002c0 .001 0 .002-.749.04-.75.037-.749.037-.749.038a.654.654 0 00.003.043l.008.066c.007.053.019.12.037.2.038.163.103.38.216.648.227.536.646 1.268 1.416 2.16l1.135-.98zM1 5.856a93.091 93.091 0 00.117.741h.005a1.32 1.32 0 00.038-.007l.099-.02a7.59 7.59 0 00.355-.083c.307-.078.75-.208 1.324-.416 1.147-.416 2.812-1.144 4.935-2.403l-.766-1.29c-2.044 1.212-3.625 1.9-4.68 2.283a12.97 12.97 0 01-1.185.374 6.11 6.11 0 01-.36.08h.002L1 5.856zm6.873-2.188l3.41-2.023-.766-1.29-3.41 2.022.766 1.29zm2.602 1.626l2.871 5.109 1.308-.735-2.871-5.108-1.308.734zm4.405 7.84l3.516 6.254 1.307-.735-3.515-6.255-1.307.735zm2.599 6.839l-2.808-4.997-1.308.735 2.808 4.996 1.308-.734zm-4.257-7.575L9.558 5.88l-1.307.735 3.663 6.52 1.308-.736zm-1.393 8.31l7.92-14.094-1.307-.735-7.92 14.094 1.307.735zM16.217 4.56l-7.92 14.093 1.307.735 7.92-14.094-1.307-.734zM9.038 21.468a2.016 2.016 0 002.791-.76l-1.308-.735a.516.516 0 01-.718.205l-.765 1.29zm.765-1.29a.59.59 0 01-.199-.79l-1.307-.735c-.55.978-.231 2.238.741 2.815l.765-1.29zM16.446.633L14.735 3.68l1.308.735 1.712-3.048-1.308-.734zm-1.44 4.06l3.409 2.022.765-1.29-3.41-2.023-.765 1.29zm3.409 2.022c.994.59 1.646 1.421 2.052 2.122a6.501 6.501 0 01.517 1.13l.02.06.003.012s0 .001 0 0v-.001l.723-.197a96.126 96.126 0 00.723-.2l-.001-.003a.498.498 0 00-.011-.04 6.13 6.13 0 00-.151-.432 8.006 8.006 0 00-.525-1.081c-.491-.848-1.306-1.902-2.585-2.66l-.765 1.29zM21.73 9.84l-.115.74.002.001h.004l.01.002a1.576 1.576 0 00.127.015 5.92 5.92 0 001.43-.047c.87-.136 2.003-.52 2.881-1.54l-1.135-.98c-.57.662-1.324.936-1.978 1.039a4.423 4.423 0 01-1.049.036 1.955 1.955 0 01-.065-.008h.002l-.114.742zm4.34-.829c.769-.892 1.188-1.624 1.415-2.16a3.92 3.92 0 00.216-.648 2.311 2.311 0 00.047-.291v-.01-.005l.001-.002v-.001L27 5.856c-.75-.037-.749-.038-.749-.038v-.001-.002-.004-.006l.001-.007v.001a.877.877 0 01-.013.07c-.018.075-.055.21-.135.398-.16.377-.49.978-1.17 1.766l1.135.98zM27 5.856l.116-.74h.002l-.012-.003a6.12 6.12 0 01-.348-.079c-.259-.066-.656-.181-1.184-.373-1.057-.383-2.637-1.07-4.681-2.284l-.765 1.29c2.122 1.26 3.787 1.988 4.934 2.404.574.208 1.017.338 1.324.416a7.59 7.59 0 00.492.11h.006l.116-.74zm-6.107-3.479L17.483.355l-.765 1.29 3.41 2.023.765-1.29z" fill="#626262"/></svg>