<svg width="22" height="18" viewBox="0 0 22 18" fill="none" xmlns="http://www.w3.org/2000/svg"><path d="M1 5.896v8.698C1 15.922 2.094 17 3.44 17h15.12c1.346 0 2.44-1.078 2.44-2.406V5.896c0-1.263-1.04-2.289-2.322-2.289h-3.25l-.077-.334C15.037 1.933 13.841 1 12.445 1H9.55a2.965 2.965 0 00-2.906 2.273l-.078.334H3.322C2.041 3.607 1 4.637 1 5.897zm5.967-1.303a.496.496 0 00.486-.383l.167-.716a1.969 1.969 0 011.931-1.508h2.894c.926 0 1.718.62 1.93 1.508l.168.716a.5.5 0 00.486.383h3.645c.73 0 1.322.583 1.322 1.303v8.698a1.43 1.43 0 01-1.44 1.42H3.44A1.43 1.43 0 012 14.594V5.896c0-.72.592-1.303 1.322-1.303h3.645z" fill="#929292"/><path d="M4.384 7.357c.37 0 .67-.296.67-.66 0-.365-.3-.66-.67-.66-.37 0-.67.295-.67.66 0 .364.3.66.67.66zM11 14.47c2.314 0 4.2-1.86 4.2-4.14 0-2.281-1.886-4.14-4.2-4.14s-4.2 1.855-4.2 4.14c0 2.285 1.886 4.14 4.2 4.14zm0-7.294c1.763 0 3.2 1.416 3.2 3.154s-1.437 3.154-3.2 3.154c-1.763 0-3.2-1.416-3.2-3.154S9.237 7.176 11 7.176z" fill="#929292"/><path d="M1 5.896v8.698C1 15.922 2.094 17 3.44 17h15.12c1.346 0 2.44-1.078 2.44-2.406V5.896c0-1.263-1.04-2.289-2.322-2.289h-3.25l-.077-.334C15.037 1.933 13.841 1 12.445 1H9.55a2.965 2.965 0 00-2.906 2.273l-.078.334H3.322C2.041 3.607 1 4.637 1 5.897zm5.967-1.303a.496.496 0 00.486-.383l.167-.716a1.969 1.969 0 011.931-1.508h2.894c.926 0 1.718.62 1.93 1.508l.168.716a.5.5 0 00.486.383h3.645c.73 0 1.322.583 1.322 1.303v8.698a1.43 1.43 0 01-1.44 1.42H3.44A1.43 1.43 0 012 14.594V5.896c0-.72.592-1.303 1.322-1.303h3.645z" stroke="#929292" stroke-width=".4"/><path d="M4.384 7.357c.37 0 .67-.296.67-.66 0-.365-.3-.66-.67-.66-.37 0-.67.295-.67.66 0 .364.3.66.67.66zM11 14.47c2.314 0 4.2-1.86 4.2-4.14 0-2.281-1.886-4.14-4.2-4.14s-4.2 1.855-4.2 4.14c0 2.285 1.886 4.14 4.2 4.14zm0-7.294c1.763 0 3.2 1.416 3.2 3.154s-1.437 3.154-3.2 3.154c-1.763 0-3.2-1.416-3.2-3.154S9.237 7.176 11 7.176z" stroke="#929292" stroke-width=".4"/></svg>