<svg width="20" height="14" viewBox="0 0 20 14" fill="none" xmlns="http://www.w3.org/2000/svg"><path d="M19.873 6.573C19.694 6.304 15.437 0 10 0 4.563 0 .305 6.304.127 6.573c-.17.254-.17.6 0 .854C.305 7.696 4.563 14 10 14c5.437 0 9.694-6.304 9.873-6.573.17-.254.17-.6 0-.854zM10 12.552c-4.005 0-7.474-4.185-8.5-5.552C2.524 5.63 5.985 1.448 10 1.448c4.005 0 7.473 4.184 8.5 5.552-1.025 1.37-4.486 5.552-8.5 5.552z" fill="#626262"/><path d="M10 2.655c-2.181 0-3.956 1.95-3.956 4.345 0 2.396 1.775 4.345 3.956 4.345S13.956 9.395 13.956 7c0-2.396-1.775-4.345-3.956-4.345zm0 7.242c-1.454 0-2.637-1.3-2.637-2.897 0-1.597 1.183-2.897 2.637-2.897s2.637 1.3 2.637 2.897c0 1.597-1.183 2.897-2.637 2.897z" fill="#626262"/></svg>