<svg width="27" height="27" viewBox="0 0 27 27" fill="none" xmlns="http://www.w3.org/2000/svg"><path d="M19.25 10A9.25 9.25 0 0110 19.25c-2.055 0-3.603-.678-4.258-1.025-.396-.21-.886-.3-1.374-.17l-2.89.773a.25.25 0 01-.306-.306l.773-2.89c.13-.488.04-.978-.17-1.374C1.429 13.603.75 12.055.75 10a9.25 9.25 0 0118.5 0z" stroke="#626262" stroke-width="1.5"/><path d="M19.82 10A8.121 8.121 0 0126 17.883a8.179 8.179 0 01-.863 3.665 1.17 1.17 0 00-.106.832l.745 2.784a.5.5 0 01-.612.612l-2.788-.745a1.171 1.171 0 00-.83.106 8.19 8.19 0 01-3.668.863A8.124 8.124 0 0110 19.866" stroke="#626262" stroke-width="1.5"/><path d="M6.75 8a.75.75 0 001.5 0h-1.5zm2.5 3.5a.75.75 0 001.5 0h-1.5zm-1-3.5c0-.282.158-.738.502-1.131.331-.379.764-.619 1.248-.619v-1.5c-1.016 0-1.833.51-2.377 1.131C7.092 6.488 6.75 7.282 6.75 8h1.5zM10 6.25c.58 0 1.004.19 1.282.468s.468.702.468 1.282h1.5c0-.92-.31-1.746-.907-2.343S10.92 4.75 10 4.75v1.5zM11.75 8c0 .628-.372 1.057-.93 1.448-.3.21-.537.334-.83.52-.123.078-.275.18-.401.3-.108.103-.339.352-.339.732h1.5a.565.565 0 01-.11.336.217.217 0 01-.01.012l-.004.003.003-.002.008-.008a2.31 2.31 0 01.154-.106c.177-.111.564-.33.89-.558.69-.484 1.569-1.305 1.569-2.677h-1.5zm-2.5 3V11.5h1.5v-.002-.002-.002-.002-.002-.002-.001-.002-.002-.002-.002-.002-.001-.002-.002-.002-.001-.002-.002-.002-.001-.002-.002-.001-.002-.002-.001-.002-.001-.002-.002-.001-.002-.001-.002-.001-.002-.001-.002-.001-.002-.001-.002-.001-.002-.001-.001-.002-.001-.002-.002-.002-.001-.001-.002-.002-.002-.002-.001-.002-.002-.001-.001-.002-.002-.001-.001-.002-.002-.002-.001-.001-.001-.001-.002-.002-.002-.002-.002-.002-.002-.002-.002-.001-.001-.001-.001-.001-.002-.002-.001-.001-.001-.002-.001-.001-.002-.001-.001-.002-.001-.002-.001-.001-.001-.002-.002-.002-.002-.001-.001-.001-.001-.001-.001-.001-.001-.001-.001-.001-.001-.001-.001-.001-.001-.001-.001-.001-.001-.001-.001-.001-.001-.001-.001-.001-.001-.001-.001-.001-.001-.001-.001-.001-.001-.001-.001-.001-.001-.001-.001-.001-.001-.001-.001-.001-.001-.001-.001-.001-.001-.001-.001-.001-.001-.001-.001-.001-.001-.001-.001-.001-.001-.001-.001-.001-.001-.001-.001-.001-.001-.001-.001-.001-.001-.001-.001-.001-.002-.001-.001-.001-.001-.001-.001-.001-.001-.002-.001-.001-.001-.001-.001-.001-.002-.002-.001-.002-.001-.002-.001-.002-.001-.001-.002-.001-.001-.001-.001-.002-.002-.001-.001-.001-.001-.002-.002-.002-.002-.002-.002-.002-.002-.002-.001-.001-.001-.001-.002-.002-.002-.001-.001-.002-.002-.001-.001-.002-.002-.001-.002-.002-.001-.002-.001-.001-.002-.001-.001-.002-.001-.001-.002-.001-.002-.001-.002-.002-.002-.001-.002-.001-.002-.001-.002-.001-.002-.002-.001-.002-.001-.002-.002-.001-.002-.002-.001-.002-.002-.001-.002-.002-.001-.002-.002-.002-.002-.001-.002-.002-.002-.002-.002-.001-.002-.002-.002-.002-.002-.002-.002-.002-.002-.002-.002-.002-.002-.002-.002-.002-.002-.002-.002-.003-.002-.002-.002-.002-.002-.003-.002-.002-.002-.003-.002-.002-.003V11h-1.5z" fill="#626262"/><circle cx="10" cy="14" r="1" fill="#626262"/></svg>