<svg width="28" height="28" viewBox="0 0 28 28" fill="none" xmlns="http://www.w3.org/2000/svg"><path d="M27 14.118c0-3.504-1.352-6.8-3.806-9.277A12.86 12.86 0 0014 1a12.86 12.86 0 00-9.193 3.841A13.096 13.096 0 001 14.118v6.21c0 3.51 2.833 6.369 6.31 6.369a.752.752 0 00.752-.758V14.724a.752.752 0 00-.751-.758c-1.926 0-3.65.87-4.808 2.246v-2.094C2.503 7.722 7.66 2.516 14 2.516c6.339 0 11.497 5.206 11.497 11.602 0 .05.006.101.017.152a.706.706 0 00-.017.151v2.095a6.267 6.267 0 00-4.808-2.246.752.752 0 00-.751.758v11.214c0 .421.334.758.751.758C24.167 27 27 24.142 27 20.632v-6.21a.706.706 0 00-.017-.152.704.704 0 00.017-.152zm-20.446 1.42v9.58c-2.293-.364-4.057-2.375-4.057-4.79.006-2.414 1.764-4.424 4.057-4.79zm14.892 9.884v-9.58c2.293.365 4.057 2.375 4.057 4.79-.006 2.42-1.764 4.425-4.057 4.79z" fill="#fff" stroke="#fff" stroke-width=".5"/></svg>