<svg width="20" height="20" viewBox="0 0 20 20"
     xmlns="http://www.w3.org/2000/svg">
    <path fill-rule="evenodd" clip-rule="evenodd"
          d="M19.645 10.105c0 .693-.076 1.366-.22 2.018A5.37 5.37 0 0120 14.545C20 17.558 17.524 20 14.468 20c-.947 0-1.837-.39-2.616-.803a9.735 9.735 0 01-1.746.158c-5.269 0-9.54-4.055-9.54-9.25 0-.648.067-1.28.194-1.89A5.38 5.38 0 010 5.454C0 2.442 2.476 0 5.533 0c1.081 0 2.09.307 2.942.837A9.739 9.739 0 0110.106.7c5.27 0 9.54 4.211 9.54 9.405zm-6.804 5.068c.71-.295 1.248-.707 1.616-1.23a3.013 3.013 0 00.552-1.77c0-.549-.107-1.012-.319-1.39a2.674 2.674 0 00-.886-.939 5.777 5.777 0 00-1.379-.63 19.35 19.35 0 00-1.808-.474 31.12 31.12 0 01-1.145-.28 3.823 3.823 0 01-.684-.269 1.562 1.562 0 01-.532-.407.87.87 0 01-.194-.563c0-.35.19-.651.569-.9.379-.25.878-.374 1.494-.374.667 0 1.15.114 1.45.344.302.23.559.55.774.96.166.287.32.493.463.619.142.125.35.19.625.19.3 0 .552-.106.753-.316a.999.999 0 00.301-.709c0-.285-.08-.581-.242-.881-.16-.302-.416-.59-.765-.864-.349-.274-.787-.494-1.316-.66-.53-.165-1.157-.248-1.882-.248-.907 0-1.697.125-2.369.375-.672.25-1.184.606-1.539 1.071a2.551 2.551 0 00-.531 1.594c0 .627.167 1.152.503 1.575.335.422.79.755 1.362 1 .572.244 1.282.46 2.13.641.635.133 1.142.26 1.52.379.379.118.687.29.927.515.239.223.359.517.359.877 0 .454-.223.835-.665 1.138-.444.304-1.02.456-1.73.456-.514 0-.931-.076-1.249-.226a1.94 1.94 0 01-.736-.575 4.225 4.225 0 01-.488-.868c-.123-.291-.272-.51-.447-.659a.95.95 0 00-.64-.223c-.311 0-.568.095-.77.287a.907.907 0 00-.301.684c0 .46.168.934.503 1.42.336.487.773.877 1.31 1.168.757.405 1.719.608 2.884.608.972 0 1.812-.148 2.522-.446z"
          fill="#0193E0"/>
</svg>
