<svg width="20" height="18" viewBox="0 0 20 18"
     xmlns="http://www.w3.org/2000/svg">
    <path
        d="M.353 8.63l4.609 1.779 1.783 5.93c.115.38.564.52.862.268l2.569-2.165a.747.747 0 01.934-.027l4.633 3.477c.32.24.771.06.851-.34L19.988.678c.088-.436-.326-.799-.727-.638L.348 7.58c-.467.187-.463.87.005 1.05zm6.105.832l9.006-5.734c.162-.102.329.124.19.257L8.22 11.127c-.261.252-.43.588-.478.953l-.253 1.94a.231.231 0 01-.454.034l-.974-3.537a.952.952 0 01.396-1.055z"
        fill="#179CDE"/>
</svg>
