<svg width="18" height="18" fill="none" xmlns="http://www.w3.org/2000/svg"><path d="M12.375 0h-6.75A5.626 5.626 0 000 5.625v6.75A5.626 5.626 0 005.625 18h6.75A5.626 5.626 0 0018 12.375v-6.75A5.626 5.626 0 0012.375 0zm3.938 12.375a3.942 3.942 0 01-3.938 3.938h-6.75a3.942 3.942 0 01-3.938-3.938v-6.75a3.942 3.942 0 013.938-3.938h6.75a3.942 3.942 0 013.938 3.938v6.75z" fill="url(#paint0_linear)"/><path d="M9 4.5a4.5 4.5 0 100 9 4.5 4.5 0 000-9zm0 7.313A2.816 2.816 0 016.187 9 2.816 2.816 0 019 6.187 2.816 2.816 0 0111.813 9 2.816 2.816 0 019 11.813z" fill="url(#paint1_linear)"/><path d="M13.838 4.762a.6.6 0 100-1.199.6.6 0 000 1.2z" fill="url(#paint2_linear)"/><defs><linearGradient id="paint0_linear" x1="18" y1="0" x2="0" y2="18" gradientUnits="userSpaceOnUse"><stop stop-color="#3565E5"/><stop offset=".521" stop-color="#E0475B"/><stop offset="1" stop-color="#F4D76F"/></linearGradient><linearGradient id="paint1_linear" x1="18" y1="0" x2="0" y2="18" gradientUnits="userSpaceOnUse"><stop stop-color="#3565E5"/><stop offset=".521" stop-color="#E0475B"/><stop offset="1" stop-color="#F4D76F"/></linearGradient><linearGradient id="paint2_linear" x1="18" y1="0" x2="0" y2="18" gradientUnits="userSpaceOnUse"><stop stop-color="#3565E5"/><stop offset=".521" stop-color="#E0475B"/><stop offset="1" stop-color="#F4D76F"/></linearGradient></defs></svg>