<svg width="28" height="28" viewBox="0 0 28 28" xmlns="http://www.w3.org/2000/svg"><path d="M1 5.627a.75.75 0 000 1.5v-1.5zm19.102 1.5a.75.75 0 100-1.5v1.5zM9.399 23.497l.534-.526-.534.526zm2.835 2.873l.534-.527-.534.527zm3.002 0l.533.527-.534-.527zm5.616-5.691l-.533-.527.533.527zm-5.836-5.915l-.534-.526.534.526zm-5.617 5.692l-.534-.527.534.527zm15.153-10.7a.75.75 0 00-1.471-.29l1.471.29zm-6.38 6.713a.75.75 0 10.677 1.338l-.678-1.338zM26.25 6.377c0 1.373-.331 2.58-.828 3.42-.506.854-1.098 1.206-1.606 1.206v1.5c1.251 0 2.25-.852 2.897-1.943.656-1.107 1.037-2.588 1.037-4.183h-1.5zm-2.434 4.626c-.507 0-1.1-.352-1.605-1.207-.497-.838-.828-2.046-.828-3.42h-1.5c0 1.596.381 3.077 1.037 4.184.646 1.091 1.645 1.943 2.896 1.943v-1.5zm-2.433-4.626c0-1.374.331-2.582.828-3.42.506-.855 1.098-1.207 1.605-1.207V.25c-1.25 0-2.25.852-2.896 1.943-.656 1.107-1.037 2.588-1.037 4.184h1.5zm2.433-4.627c.508 0 1.1.352 1.606 1.207.497.838.828 2.046.828 3.42h1.5c0-1.596-.381-3.077-1.037-4.184C26.067 1.102 25.067.25 23.816.25v1.5zM2.592 5.627H1v1.5h1.592v-1.5zm-.75.75v3.763h1.5V6.377h-1.5zm1.811 5.589h3.184v-1.5H3.653v1.5zm16.449-6.34H7.898v1.5h12.204v-1.5zm-12.204 0H2.592v1.5h5.306v-1.5zm.75 4.514V6.377h-1.5v3.763h1.5zm-1.811 1.825c1.01 0 1.811-.826 1.811-1.825h-1.5a.318.318 0 01-.311.325v1.5zM1.842 10.14c0 .999.801 1.825 1.811 1.825v-1.5a.318.318 0 01-.311-.325h-1.5zm7.023 13.884l2.835 2.873 1.068-1.054-2.835-2.872-1.068 1.053zm6.904 2.873l5.617-5.692-1.067-1.053-5.617 5.691 1.067 1.054zm6.144-6.979v-4.393h-1.5v4.393h1.5zM20.102 13.7h-4.336v1.5h4.336v-1.5zm-5.62.539l-5.617 5.691 1.068 1.054 5.617-5.692-1.068-1.053zm1.284-.539c-.483 0-.945.195-1.284.539l1.068 1.053a.305.305 0 01.216-.092v-1.5zm6.147 1.826c0-.999-.801-1.826-1.811-1.826v1.5c.163 0 .311.137.311.326h1.5zm-.527 5.68c.339-.343.527-.806.527-1.287h-1.5c0 .09-.035.174-.094.234l1.067 1.053zM11.7 26.897a2.853 2.853 0 004.07 0l-1.068-1.054a1.353 1.353 0 01-1.934 0L11.7 26.897zM9.933 22.97a1.42 1.42 0 010-1.988l-1.068-1.054a2.92 2.92 0 000 4.095l1.068-1.053zM23.08 9.465c-.238 1.204-.973 2.72-1.934 4.082-.967 1.372-2.075 2.465-2.976 2.922l.678 1.338c1.222-.62 2.502-1.945 3.524-3.396 1.03-1.46 1.886-3.171 2.18-4.655l-1.473-.29z" fill="#626262"/></svg>