<svg width="18" height="18" viewBox="0 0 18 18" fill="none" xmlns="http://www.w3.org/2000/svg"><path d="M9 5.625A3.379 3.379 0 005.625 9 3.379 3.379 0 009 12.375 3.379 3.379 0 0012.375 9 3.379 3.379 0 009 5.625zm0 5.625c-1.24 0-2.25-1.01-2.25-2.25S7.76 6.75 9 6.75 11.25 7.76 11.25 9 10.24 11.25 9 11.25z" fill="#626262"/><path d="M16.846 8.437a7.876 7.876 0 00-7.284-7.283V0H8.437v1.154a7.876 7.876 0 00-7.283 7.283H0v1.125h1.154a7.876 7.876 0 007.284 7.284V18h1.124v-1.154a7.876 7.876 0 007.284-7.284H18V8.437h-1.154zM9 15.75A6.757 6.757 0 012.25 9 6.757 6.757 0 019 2.25 6.757 6.757 0 0115.75 9 6.757 6.757 0 019 15.75z" fill="#626262"/></svg>