<svg width="12" height="18" viewBox="0 0 12 18" fill="none" xmlns="http://www.w3.org/2000/svg"><path d="M6 1c-.569 0-1.114.23-1.515.64-.402.41-.628.966-.628 1.546v5.828c0 .58.226 1.136.628 1.546.401.41.946.64 1.515.64.568 0 1.113-.23 1.515-.64.402-.41.628-.966.628-1.546V3.186c0-.58-.226-1.136-.628-1.546A2.122 2.122 0 006 1v0z" stroke="#2AB0CD" stroke-width="1.5" stroke-linecap="round" stroke-linejoin="round"/><path d="M11 7.522v1.47a5.228 5.228 0 01-1.464 3.642A4.928 4.928 0 016 14.142a4.928 4.928 0 01-3.536-1.508A5.228 5.228 0 011 8.993V7.522M6 14.571v2.01M3.143 17h5.714" stroke="#2AB0CD" stroke-width="1.5" stroke-linecap="round" stroke-linejoin="round"/></svg>