<svg width="18" height="22" viewBox="0 0 18 22" xmlns="http://www.w3.org/2000/svg" fill="none"><path d="M8.996 1C4.588 1 1 4.597 1 9.017a7.91 7.91 0 00.197 1.773c.12.541.3 1.074.535 1.581.861 2.034 2.756 5.157 6.913 8.503a.567.567 0 00.71 0c4.153-3.346 6.052-6.47 6.913-8.503a7.824 7.824 0 00.59-1.849A8.265 8.265 0 0017 9.017C16.992 4.597 13.404 1 8.996 1zm6.741 9.325c0 .008-.004.017-.004.025l-.038.18v.009c-.104.47-.259.926-.464 1.367-.004.004-.004.012-.008.016-.782 1.858-2.497 4.692-6.227 7.782-3.73-3.09-5.445-5.924-6.227-7.782-.004-.004-.004-.012-.008-.016a7.114 7.114 0 01-.465-1.367v-.009c-.025-.096-.033-.159-.037-.18 0-.008-.004-.017-.004-.03a6.866 6.866 0 01-.126-1.307c0-3.795 3.082-6.885 6.867-6.885 3.784 0 6.867 3.09 6.867 6.885 0 .444-.042.884-.126 1.312z" fill="#626262"/><path d="M8.996 4.015c-2.798 0-5.077 2.285-5.077 5.09 0 2.805 2.28 5.09 5.077 5.09s5.077-2.285 5.077-5.09c0-2.805-2.28-5.09-5.077-5.09zm0 9.048a3.958 3.958 0 01-3.948-3.958 3.96 3.96 0 013.948-3.958 3.96 3.96 0 013.947 3.958 3.957 3.957 0 01-3.947 3.958z" fill="#626262"/><path d="M8.996 1C4.588 1 1 4.597 1 9.017a7.91 7.91 0 00.197 1.773c.12.541.3 1.074.535 1.581.861 2.034 2.756 5.157 6.913 8.503a.567.567 0 00.71 0c4.153-3.346 6.052-6.47 6.913-8.503a7.824 7.824 0 00.59-1.849A8.265 8.265 0 0017 9.017C16.992 4.597 13.404 1 8.996 1zm6.741 9.325c0 .008-.004.017-.004.025l-.038.18v.009c-.104.47-.259.926-.464 1.367-.004.004-.004.012-.008.016-.782 1.858-2.497 4.692-6.227 7.782-3.73-3.09-5.445-5.924-6.227-7.782-.004-.004-.004-.012-.008-.016a7.114 7.114 0 01-.465-1.367v-.009c-.025-.096-.033-.159-.037-.18 0-.008-.004-.017-.004-.03a6.866 6.866 0 01-.126-1.307c0-3.795 3.082-6.885 6.867-6.885 3.784 0 6.867 3.09 6.867 6.885 0 .444-.042.884-.126 1.312z" stroke="#626262" stroke-width=".5"/><path d="M8.996 4.015c-2.798 0-5.077 2.285-5.077 5.09 0 2.805 2.28 5.09 5.077 5.09s5.077-2.285 5.077-5.09c0-2.805-2.28-5.09-5.077-5.09zm0 9.048a3.958 3.958 0 01-3.948-3.958 3.96 3.96 0 013.948-3.958 3.96 3.96 0 013.947 3.958 3.957 3.957 0 01-3.947 3.958z" stroke="#626262" stroke-width=".5"/></svg>