<svg width="20" height="20" viewBox="0 0 20 20" fill="none" xmlns="http://www.w3.org/2000/svg"><path d="M18.713 1.293l-.003-.003-.003-.003a.97.97 0 00-1.05-.218L1.625 7.338a.97.97 0 00-.618 1.032.97.97 0 00.845.857l7.835 1.057a.033.033 0 01.029.029l1.057 7.835a.97.97 0 00.98.852c.402 0 .758-.24.909-.625l6.269-16.032a.97.97 0 00-.218-1.05zM1.98 8.286c-.018-.002-.025-.003-.029-.029-.003-.025.005-.028.021-.034l15-5.865-7.016 7.015C9.91 9.36 1.98 8.286 1.98 8.286zm9.798 9.743c-.006.016-.008.024-.034.02-.026-.002-.027-.01-.03-.028 0 0-1.073-7.93-1.086-7.976l7.015-7.016-5.865 15z" fill="#2AB0CD" stroke="#2AB0CD" stroke-width=".5"/></svg>