<svg width="18" height="18" viewBox="0 0 18 18" fill="none" xmlns="http://www.w3.org/2000/svg"><path d="M15.367 2.634C11.857-.878 6.144-.878 2.633 2.633c-3.511 3.51-3.51 9.223 0 12.734 3.51 3.51 9.223 3.51 12.734 0 3.51-3.511 3.51-9.223 0-12.733zm-.982 11.75c-2.97 2.97-7.8 2.97-10.77.001-2.97-2.97-2.97-7.801 0-10.77 2.97-2.969 7.8-2.97 10.77 0 2.97 2.97 2.969 7.801 0 10.77zM5.64 6.565a1.053 1.053 0 112.106 0 1.053 1.053 0 01-2.106 0zm4.772 0a1.053 1.053 0 112.106 0 1.053 1.053 0 01-2.106 0zm2.488 4.31c-.652 1.508-2.18 2.482-3.89 2.482-1.749 0-3.285-.98-3.915-2.495a.509.509 0 11.94-.39c.472 1.134 1.639 1.867 2.974 1.867 1.306 0 2.466-.733 2.957-1.869a.509.509 0 11.934.404z" fill="#929292"/></svg>