<svg width="16" height="20" viewBox="0 0 16 20" fill="none" xmlns="http://www.w3.org/2000/svg"><path d="M14.303 0H1.697C.761 0 0 .785 0 1.75v16.5C0 19.215.761 20 1.697 20h12.606c.936 0 1.697-.785 1.697-1.75V1.75C16 .785 15.239 0 14.303 0zm.242 18.25a.25.25 0 01-.242.25H1.697a.25.25 0 01-.242-.25V1.75a.25.25 0 01.242-.25h12.606a.25.25 0 01.242.25v16.5z" fill="#626262"/><path d="M10.182 8.5H5.576a.739.739 0 00-.728.75c0 .414.326.75.728.75h4.606a.739.739 0 00.727-.75.739.739 0 00-.727-.75zM11.879 11.5H4.12a.739.739 0 00-.727.75c0 .414.326.75.727.75h7.758a.739.739 0 00.727-.75.739.739 0 00-.727-.75zM11.879 14.5H4.12a.739.739 0 00-.727.75c0 .414.326.75.727.75h7.758a.739.739 0 00.727-.75.739.739 0 00-.727-.75zM10.182.75v2.5H5.818V.75H4.364V4c0 .414.325.75.727.75h5.818a.739.739 0 00.727-.75V.75h-1.454z" fill="#626262"/></svg>