<svg width="30" height="30" viewBox="0 0 30 30" xmlns="http://www.w3.org/2000/svg"><path d="M25 8l.53-.53a.75.75 0 00-1.06 0L25 8zm-3-3l.53.53a.75.75 0 000-1.06L22 5zM8 25l-.53-.53a.75.75 0 000 1.06L8 25zm-3-3l-.53.53a.75.75 0 001.06 0L5 22zm2.792-4.292l-.53-.53a.75.75 0 000 1.06l.53-.53zm9.916-9.916l.53-.53a.75.75 0 00-1.06 0l.53.53zm4.5 4.5l.53.53a.75.75 0 000-1.06l-.53.53zm-9.916 9.916l-.53.53a.75.75 0 001.06 0l-.53-.53zm3.594-9.155a.75.75 0 001.061 1.06l-1.06-1.06zm2.478-.356a.75.75 0 00-1.061-1.06l1.06 1.06zm-6.728 4.606a.75.75 0 001.061 1.06l-1.06-1.06zm2.478-.356a.75.75 0 00-1.061-1.06l1.06 1.06zM3.947 18.114L18.114 3.947l-1.061-1.06L2.886 17.052l1.061 1.06zm22.106-6.228L11.886 26.053l1.061 1.06 14.167-14.166-1.061-1.06zM11.886 26.053c-.461.461-1.291.481-1.856-.083l-1.06 1.06c1.092 1.093 2.873 1.187 3.977.084l-1.06-1.061zM25.97 10.03c.564.565.544 1.395.083 1.856l1.06 1.061c1.104-1.103 1.01-2.885-.083-3.977l-1.06 1.06zm-7.856-6.083c.461-.461 1.291-.481 1.856.083l1.06-1.06c-1.092-1.093-2.874-1.187-3.977-.084l1.06 1.061zM2.886 17.053c-1.103 1.104-1.009 2.885.084 3.977l1.06-1.06c-.564-.565-.544-1.395-.083-1.856l-1.06-1.061zM24.47 7.47c-.462.461-1.292.48-1.856-.084l-1.061 1.061c1.092 1.092 2.874 1.187 3.977.083l-1.06-1.06zm-1.856-.084c-.565-.564-.545-1.394-.084-1.856l-1.06-1.06c-1.104 1.103-1.01 2.885.083 3.977l1.06-1.06zM7.386 22.614c.565.564.545 1.394.084 1.856l1.06 1.06c1.104-1.103 1.01-2.885-.083-3.977l-1.06 1.06zM5.53 22.53c.462-.461 1.292-.48 1.856.084l1.061-1.061c-1.092-1.092-2.874-1.187-3.977-.083l1.06 1.06zm14.44-18.5l1.5 1.5 1.06-1.06-1.5-1.5-1.06 1.06zm4.5 4.5l1.5 1.5 1.06-1.06-1.5-1.5-1.06 1.06zm-21.5 12.5l1.5 1.5 1.06-1.06-1.5-1.5-1.06 1.06zm4.5 4.5l1.5 1.5 1.06-1.06-1.5-1.5-1.06 1.06zm.852-7.291l9.917-9.917-1.061-1.06-9.917 9.916 1.061 1.06zm8.856-9.917l4.5 4.5 1.06-1.06-4.5-4.5-1.06 1.06zm4.5 3.44l-9.917 9.916 1.061 1.06 9.917-9.916-1.061-1.06zm-8.856 9.916l-4.5-4.5-1.06 1.06 4.5 4.5 1.06-1.06zm4.125-7.564l1.417-1.417-1.061-1.06-1.417 1.416 1.061 1.06zm-4.25 4.25l1.417-1.417-1.061-1.06-1.417 1.416 1.061 1.06z" fill="#626262"/></svg>