<svg width="26" height="26" fill="none" xmlns="http://www.w3.org/2000/svg"><path d="M18 5h2a2 2 0 012 2v3H3.5A2.5 2.5 0 011 7.5v0A2.5 2.5 0 013.5 5H5" stroke="#626262" stroke-width="1.5"/><path d="M1 7v15a3 3 0 003 3h18a2 2 0 002-2v-2m-2-11v0a2 2 0 012 2v2" stroke="#626262" stroke-width="1.5"/><path d="M18 17.5a3.5 3.5 0 013.5-3.5H24a1 1 0 011 1v5a1 1 0 01-1 1h-2.5a3.5 3.5 0 01-3.5-3.5v0z" stroke="#626262" stroke-width="1.5"/><path d="M22.5 17.5a1 1 0 11-2 0 1 1 0 012 0z" fill="#626262"/><path d="M18 10V2a1 1 0 00-1-1h-5.5M5 10V2a1 1 0 011-1h2.5m0 9V1m0 0h3m0 9V1" stroke="#626262" stroke-width="1.5" stroke-linejoin="round"/></svg>