<svg width="22" height="22" viewBox="0 0 22 22" fill="none" xmlns="http://www.w3.org/2000/svg"><path d="M13.04 15.01s1.584-.907 1.999-1.125c.413-.218.841-.274 1.101-.115.394.241 3.701 2.441 3.98 2.636.278.195.413.752.03 1.298-.382.546-2.14 2.705-2.886 2.682-.747-.024-3.851-.092-9.705-5.947C1.706 8.585 1.637 5.48 1.613 4.734c-.024-.747 2.135-2.506 2.681-2.888.547-.381 1.105-.238 1.3.03.22.306 2.394 3.603 2.634 3.98.164.259.103.69-.115 1.103-.218.415-1.124 1.998-1.124 1.998s.639 1.09 2.8 3.251c2.162 2.161 3.251 2.802 3.251 2.802z" stroke="#2AB0CD" stroke-width="1.5" stroke-miterlimit="10"/></svg>