<svg width="22" height="23" fill="none" xmlns="http://www.w3.org/2000/svg"><path d="M13.5 19H21m0 0l-2.727-3M21 19l-2.727 3" stroke="#626262" stroke-width="1.2" stroke-linecap="round" stroke-linejoin="round"/><path d="M4.531 8.984H2.97v1.563h1.56V8.984zm3.125 0H6.094v1.563h1.562V8.984zm3.125 0H9.22v1.563h1.562V8.984zm3.125 0h-1.562v1.563h1.562V8.984zm3.125 0H15.47v1.563h1.562V8.984zm-12.5 3.126H2.97v1.562h1.56v-1.563zm3.125 0H6.094v1.562h1.562v-1.563zm3.125 0H9.22v1.562h1.562v-1.563zm3.125 0h-1.562v1.562h1.562v-1.563zm-9.375 3.124H2.97v1.563h1.56v-1.563zm3.125 0H6.094v1.563h1.562v-1.563zm3.125 0H9.22v1.563h1.562v-1.563zm6.25-3.124H15.47v1.562h1.562v-1.563z" fill="#626262"/><path fill-rule="evenodd" clip-rule="evenodd" d="M17.656 1.563h-.937V0h-1.563v1.563H4.844V0H3.28v1.563h-.937A2.346 2.346 0 000 3.905v13.75A2.346 2.346 0 002.344 20h8.437v-1.563H2.344a.782.782 0 01-.781-.78V7.343h16.875v6.328H20V3.906a2.346 2.346 0 00-2.344-2.344zM1.563 5.78h16.875V3.906a.783.783 0 00-.782-.781h-.937v1.563h-1.563V3.125H4.844v1.563H3.28V3.125h-.937a.781.781 0 00-.781.781v1.875z" fill="#626262"/></svg>