<svg width="22" height="22" viewBox="0 0 22 22"
     xmlns="http://www.w3.org/2000/svg">
    <path
        d="M4.13 22c-.323 0-.645-.088-.931-.264a1.745 1.745 0 01-.841-1.497v-2.578C.504 15.331-.298 12.42.099 9.432.737 4.64 4.707.712 9.54.093c3.404-.436 6.745.67 9.17 3.035a10.842 10.842 0 013.221 9.033c-.549 4.89-4.529 8.913-9.463 9.566a11.068 11.068 0 01-5.783-.787l-1.76.873A1.788 1.788 0 014.13 22zM9.74 1.64c-4.138.53-7.537 3.893-8.083 7.996-.352 2.647.39 5.222 2.09 7.25.118.14.182.317.182.499v2.854c0 .092.052.143.096.17.044.027.114.05.197.009l2.093-1.037A.79.79 0 017 19.372a9.495 9.495 0 005.258.81c4.23-.56 7.64-4.005 8.11-8.193a9.3 9.3 0 00-2.76-7.749c-2.079-2.027-4.947-2.975-7.868-2.6z"
        fill="#1976D2"/>
    <path
        d="M5.54 13.378l3.606-5.093a.505.505 0 01.74-.151L12.3 9.93a.507.507 0 00.561.029l2.942-2.063c.432-.257.934.204.71.651l-2.913 5a.505.505 0 01-.71.205l-3.225-1.92a.507.507 0 00-.484-.019l-2.98 2.258c-.446.221-.91-.265-.662-.694z"
        fill="#1976D2"/>
</svg>
