<svg width="28" height="26" fill="none" xmlns="http://www.w3.org/2000/svg"><path d="M20.763 10.25a.75.75 0 000 1.5v-1.5zm3.085 1.145l-.733.157.733-.157zm2.656 12.396l-.733.157.733-.157zm-25.481 0l.733.157-.733-.157zm2.656-12.396l.733.157-.733-.157zm3.084.355a.75.75 0 000-1.5v1.5zm12-5.75h-.75.75zm-5 10l-.468.586a.75.75 0 00.937 0L13.763 16zm-6 2.75a.75.75 0 000-1.5v1.5zm11-5a.75.75 0 000 1.5v-1.5zm2-2h2.596v-1.5h-2.596v1.5zm2.352-.198l2.656 12.396 1.467-.315-2.657-12.395-1.466.314zm2.411 12.698H2v1.5h23.526v-1.5zm-23.77-.302l2.656-12.396-1.467-.314L.29 23.633l1.467.315zM4.168 11.75h2.595v-1.5H4.168v1.5zm.244-.198a.25.25 0 01-.244.198v-1.5a1.25 1.25 0 00-1.223.988l1.467.314zM2 24.25a.25.25 0 01-.244-.302l-1.467-.315A1.75 1.75 0 002 25.75v-1.5zm23.77-.302a.25.25 0 01-.244.302v1.5a1.75 1.75 0 001.712-2.117l-1.467.315zM23.36 11.75a.25.25 0 01-.245-.198l1.466-.314a1.25 1.25 0 00-1.222-.988v1.5zM15.012 6c0 .69-.56 1.25-1.25 1.25v1.5A2.75 2.75 0 0016.513 6h-1.5zm-1.25 1.25c-.69 0-1.25-.56-1.25-1.25h-1.5a2.75 2.75 0 002.75 2.75v-1.5zM12.513 6c0-.69.56-1.25 1.25-1.25v-1.5A2.75 2.75 0 0011.013 6h1.5zm1.25-1.25c.69 0 1.25.56 1.25 1.25h1.5a2.75 2.75 0 00-2.75-2.75v1.5zM18.013 6c0 2.79-1.163 5.138-2.36 6.814a15.542 15.542 0 01-1.639 1.937 12.225 12.225 0 01-.712.657l-.007.006v.001l.468.585c.469.586.47.585.47.585l.002-.001.004-.004a3.78 3.78 0 00.014-.011l.049-.041.174-.15c.146-.13.353-.32.599-.566a17.047 17.047 0 001.799-2.126c1.303-1.824 2.64-4.475 2.64-7.686h-1.5zm-4.25 10c.469-.586.47-.585.47-.585h-.001l-.008-.007a4.45 4.45 0 01-.178-.153c-.127-.112-.31-.281-.534-.504a15.542 15.542 0 01-1.638-1.937C10.677 11.138 9.514 8.79 9.514 6h-1.5c0 3.21 1.336 5.862 2.64 7.686a17.047 17.047 0 001.798 2.126 13.711 13.711 0 00.822.757l.014.011.004.004h.002v.001l.47-.585zM9.513 6a4.25 4.25 0 014.25-4.25V.25A5.75 5.75 0 008.013 6h1.5zm4.25-4.25A4.25 4.25 0 0118.013 6h1.5a5.75 5.75 0 00-5.75-5.75v1.5zm-6 15.5c-1.801 0-3.25 1.232-3.25 2.75h1.5c0-.482.552-1.25 1.75-1.25v-1.5zM4.513 20c0 1.518 1.449 2.75 3.25 2.75v-1.5c-1.198 0-1.75-.768-1.75-1.25h-1.5zm14.25-.75c1.327 0 2.29-.261 2.926-.806.665-.57.824-1.32.824-1.944h-1.5c0 .376-.09.625-.3.806-.24.205-.776.444-1.95.444v1.5zm3.75-2.75c0-.624-.16-1.375-.824-1.944-.635-.545-1.6-.806-2.926-.806v1.5c1.174 0 1.71.239 1.95.444.21.18.3.43.3.806h1.5zm-3.75 1.25c-1.813 0-3.147.227-4.209.587-1.066.36-1.821.844-2.47 1.299-.664.464-1.15.843-1.788 1.135-.611.279-1.378.479-2.533.479v1.5c1.346 0 2.329-.237 3.156-.615.799-.364 1.437-.86 2.024-1.27.601-.42 1.221-.813 2.092-1.108.876-.296 2.041-.507 3.728-.507v-1.5z" fill="#626262"/></svg>