<svg width="26" height="26" fill="none" xmlns="http://www.w3.org/2000/svg"><path d="M24 12V5a2 2 0 00-2-2H3a2 2 0 00-2 2v17a2 2 0 002 2h9M13 1v4m7 0V1M6 1v4" stroke="#626262" stroke-width="1.5" stroke-linecap="round"/><path d="M7 10a1 1 0 11-2 0 1 1 0 012 0zM11 10a1 1 0 11-2 0 1 1 0 012 0zM7 14a1 1 0 11-2 0 1 1 0 012 0zM11 14a1 1 0 11-2 0 1 1 0 012 0zM7 18a1 1 0 11-2 0 1 1 0 012 0zM11 18a1 1 0 11-2 0 1 1 0 012 0zM15 10a1 1 0 11-2 0 1 1 0 012 0zM19 10a1 1 0 11-2 0 1 1 0 012 0z" fill="#626262"/><circle cx="19.5" cy="19.5" r="5.5" stroke="#626262" stroke-width="1.5"/><path d="M19.5 17v3H21" stroke="#626262" stroke-width="1.5" stroke-linecap="round" stroke-linejoin="round"/></svg>