<svg width="56" height="56" viewBox="0 0 56 56" fill="none" xmlns="http://www.w3.org/2000/svg"><path d="M9.665 5.108v1.677a5.109 5.109 0 0010.216 0V5.108a5.108 5.108 0 10-10.216 0zm8.38 0v1.677a3.272 3.272 0 11-6.544 0V5.108a3.291 3.291 0 013.29-3.27h-.008a3.266 3.266 0 013.262 3.27z" fill="#7EBD3E"/><path d="M3.695 30.478c0 1.78 1.41 3.252 3.19 3.252H6.9l.023-.012a3.157 3.157 0 001.55-.435l.57 19.211a3.421 3.421 0 005.927 2.204 3.421 3.421 0 005.927-2.212l.57-19.183a3.307 3.307 0 001.587.404 3.256 3.256 0 003.257-3.232V17.644a5.311 5.311 0 00-1.19-3.816 5.246 5.246 0 00-3.565-1.897c-.176-.018-.367-.012-.544-.012h-2.206a.906.906 0 00-.628.234l-3.208 3.003-3.082-2.988a.91.91 0 00-.64-.25H8.904a5.215 5.215 0 00-5.251 5.25c0 .16.041.315.041.475v12.835zm13.768 23.477a1.6 1.6 0 01-1.6-1.587V33.44a.918.918 0 10-1.836 0v18.927a1.577 1.577 0 01-3.155.043l-.65-22.125h9.495l-.663 22.12a1.603 1.603 0 01-1.591 1.549zM6.477 14.747c.644-.643 1.519-1 2.428-.992h1.969l3.443 3.336c.006.006.012.003.018.008.013.012.026.02.04.031.01.009.02.015.03.023l.043.03.034.02a1.224 1.224 0 00.08.044l.044.02.039.014.045.015.04.012.046.01.04.007.047.006.04.003.048.002h.04c.017 0 .033-.002.05-.003a1.014 1.014 0 00.173-.033l.037-.01a1.28 1.28 0 00.128-.055.57.57 0 00.078-.045.69.69 0 00.108-.083c.007-.006.015.003.021-.003l3.582-3.349h1.843a3.443 3.443 0 013.442 3.756c-.004.03.02.058.02.088v12.876a1.436 1.436 0 01-2.87 0v-2.803l.014-.446c.002-.063-.014-.126-.014-.186v-5.183a.918.918 0 10-1.836 0v5.787l.005.805h-9.605l-.035-1.297c-.001-.043-.008-.065-.008-.106v-5.189a.918.918 0 00-1.837 0v8.555c0 .795-.627 1.48-1.386 1.48h-.015c-.768 0-1.354-.647-1.354-1.415V17.6c0-.03-.021-.061-.024-.092a3.436 3.436 0 01-.028-.34 3.385 3.385 0 01.997-2.42zM32.992 27.99a3.016 3.016 0 00-3.009 3.026v21.939A3.032 3.032 0 0032.993 56h16.413c1.667 0 3.077-1.378 3.077-3.045V31.016c0-1.668-1.41-3.026-3.077-3.026H45.48v-5.97h1.813a.918.918 0 100-1.836H35.147a.918.918 0 000 1.836h1.839v5.97h-3.994zm17.655 24.985c0 .656-.532 1.188-1.188 1.188H33.008a1.188 1.188 0 01-1.188-1.188v-21.96c0-.657.532-1.188 1.188-1.189h16.451c.656 0 1.188.532 1.188 1.188v21.961zM38.823 22.02h4.821v5.97h-4.821v-5.97z" fill="#7EBD3E"/><path d="M33.764 35.566c0 .508.411.919.918.919h13.075a.918.918 0 100-1.837H34.682a.918.918 0 00-.918.918zM46.408 40.617H36.074a.949.949 0 00-.925.947v7.001a1.823 1.823 0 001.853 1.81h8.436c1-.017 1.82-.8 1.881-1.8 0-.017 0-.034-.002-.052v-6.96a.935.935 0 00-.909-.946zm-.927 7.858a.112.112 0 01-.05.1H37a.046.046 0 01-.015-.01v-6.111h8.495v6.02z" fill="#7EBD3E"/></svg>