<svg width="22" height="14" viewBox="0 0 22 14" xmlns="http://www.w3.org/2000/svg"><path d="M5.803 4.919c-1.685 0-3.056 1.346-3.056 3s1.371 3 3.056 3 3.056-1.346 3.056-3-1.371-3-3.056-3zm0 3.66a.668.668 0 01-.674-.66c0-.365.303-.661.674-.661.371 0 .673.296.673.66a.668.668 0 01-.673.662zM16.124 4.919c-1.685 0-3.056 1.346-3.056 3s1.371 3 3.056 3 3.056-1.346 3.056-3-1.37-3-3.056-3zm.03 3.66a.668.668 0 01-.673-.66c0-.365.302-.661.674-.661.371 0 .673.296.673.66a.668.668 0 01-.673.662z" fill="#078171"/><path d="M22 2.222h-4.92C15.617.826 13.355 0 10.964 0 8.669 0 6.356.846 4.849 2.222H.041L1.35 4.27A5.61 5.61 0 000 7.92c0 3.14 2.603 5.696 5.803 5.696a5.838 5.838 0 004.207-1.776L10.964 14l.953-2.161a5.839 5.839 0 004.207 1.776c3.2 0 5.803-2.555 5.803-5.696a5.606 5.606 0 00-1.287-3.573L22 2.222zM5.803 12.354c-2.491 0-4.518-1.99-4.518-4.435 0-2.446 2.027-4.436 4.518-4.436 2.491 0 4.518 1.99 4.518 4.436 0 2.445-2.027 4.435-4.518 4.435zm14.84-4.435c0 2.445-2.027 4.435-4.519 4.435-2.491 0-4.518-1.99-4.518-4.435 0-2.446 2.027-4.436 4.518-4.436 2.492 0 4.518 1.99 4.518 4.436z" fill="#078171"/></svg>