<svg width="14" height="12" fill="none" xmlns="http://www.w3.org/2000/svg"><path d="M13.683 1.385a5.15 5.15 0 01-.677.258c.273-.324.482-.705.609-1.122a.243.243 0 00-.074-.257.218.218 0 00-.256-.018 5.19 5.19 0 01-1.575.652A2.951 2.951 0 009.606 0C7.949 0 6.601 1.411 6.601 3.146c0 .137.008.273.024.407C4.57 3.363 2.657 2.306 1.345.62A.221.221 0 001.15.533.225.225 0 00.974.65a3.259 3.259 0 00-.407 1.582c0 .758.258 1.478.715 2.04a2.49 2.49 0 01-.402-.188.217.217 0 00-.222.001.238.238 0 00-.113.2v.042c0 1.132.581 2.15 1.47 2.706a2.48 2.48 0 01-.228-.035.22.22 0 00-.212.075.245.245 0 00-.046.23C1.86 8.377 2.706 9.17 3.731 9.41a5.142 5.142 0 01-3.479.81.226.226 0 00-.239.155.242.242 0 00.09.28A7.842 7.842 0 004.488 12c3.06 0 4.974-1.51 6.04-2.778a9.045 9.045 0 002.09-5.999 6.012 6.012 0 001.345-1.49.245.245 0 00-.015-.284.219.219 0 00-.264-.064z" fill="#179CDE"/></svg>