<svg width="220" height="220" viewBox="0 0 220 220" fill="none" xmlns="http://www.w3.org/2000/svg"><circle cx="110" cy="110" r="110" fill="#FAFAFA"/><circle cx="110" cy="110" r="80" fill="#2AB0CD"/><path d="M110.5 90a5.305 5.305 0 00-3.788 1.6 5.518 5.518 0 00-1.569 3.864v14.571a5.52 5.52 0 001.569 3.864 5.307 5.307 0 003.788 1.6 5.305 5.305 0 003.788-1.6 5.52 5.52 0 001.569-3.864v-14.57c0-1.45-.564-2.84-1.569-3.865A5.303 5.303 0 00110.5 90v0z" stroke="#fff" stroke-width="4" stroke-linecap="round" stroke-linejoin="round"/><path d="M123 106.304v3.678c0 3.414-1.317 6.688-3.661 9.103-2.344 2.414-5.524 3.77-8.839 3.77-3.315 0-6.495-1.356-8.839-3.77-2.344-2.415-3.661-5.689-3.661-9.103v-3.678M110.5 123.928v5.026M103.357 130h14.286" stroke="#fff" stroke-width="4" stroke-linecap="round" stroke-linejoin="round"/></svg>