<?xml version="1.0" standalone="no"?>
<!DOCTYPE svg PUBLIC "-//W3C//DTD SVG 20010904//EN"
 "http://www.w3.org/TR/2001/REC-SVG-20010904/DTD/svg10.dtd">
<svg version="1.0" xmlns="http://www.w3.org/2000/svg"
  viewBox="0 0 1280.000000 1280.000000"
 preserveAspectRatio="xMidYMid meet" width="30" height="30">
<metadata>
Created by potrace 1.15, written by Peter Selinger 2001-2017
</metadata>
<g transform="translate(0.000000,1280.000000) scale(0.100000,-0.100000)"
fill="#000000" stroke="none">
<path d="M7108 10789 c-314 -46 -536 -226 -703 -571 -28 -59 -64 -145 -80
-191 l-29 -84 -65 131 c-232 459 -527 676 -923 676 -262 0 -464 -73 -632 -230
-170 -159 -241 -414 -187 -675 20 -97 58 -199 95 -255 12 -19 31 -48 42 -65
l19 -30 -60 34 c-106 59 -206 134 -277 206 -38 38 -183 198 -321 355 -237 268
-254 285 -289 288 -26 2 -43 -3 -56 -16 -18 -18 -409 -738 -437 -806 -29 -69
-36 -63 397 -341 l93 -60 -106 -5 -105 -5 -215 -171 c-118 -95 -223 -181 -233
-193 -26 -29 -25 -77 3 -104 l22 -22 957 -2 c1341 -4 2313 7 2337 27 30 25 35
54 17 111 -20 62 40 21 -587 399 -258 155 -512 312 -564 348 -201 140 -343
277 -398 386 -23 45 -25 58 -21 140 6 115 32 178 99 241 67 63 145 95 269 110
l55 7 -43 -31 c-58 -43 -97 -108 -112 -187 -46 -242 146 -516 595 -854 158
-119 271 -190 391 -247 127 -60 179 -56 197 15 7 28 -59 289 -111 442 -39 114
-102 269 -149 365 -52 108 16 -1 85 -135 76 -146 125 -270 167 -420 16 -57 35
-102 47 -112 36 -32 100 -18 119 25 6 15 7 -5 3 -60 -7 -103 5 -146 47 -164
41 -16 57 -11 309 116 638 318 960 582 987 804 17 147 -81 269 -300 377 -289
141 -508 78 -709 -206 -127 -180 -247 -472 -303 -735 -28 -129 -32 -93 -10 78
43 330 161 602 340 783 95 97 181 148 290 175 80 20 286 14 379 -10 262 -69
438 -239 467 -451 16 -111 -14 -200 -106 -320 -129 -168 -476 -446 -797 -638
-120 -73 -317 -165 -418 -198 -47 -14 -94 -35 -104 -45 -26 -24 -25 -75 3
-102 21 -21 29 -22 199 -21 189 1 314 16 482 59 94 23 109 22 110 -11 0 -6 9
-19 21 -30 21 -18 57 -19 1314 -19 1267 0 1293 0 1314 19 17 15 21 29 19 60
-3 40 -6 43 -233 221 l-230 180 -532 3 c-293 1 -533 5 -533 8 0 3 44 56 98
117 151 173 405 467 540 625 102 120 122 149 122 176 0 21 -8 40 -22 53 -31
28 -714 323 -748 323 -14 0 -34 -6 -43 -12 -9 -7 -45 -84 -80 -171 l-63 -158
-28 82 c-105 321 -434 552 -849 598 -108 12 -156 12 -239 0z m1660 -799 c9 0
-215 -266 -392 -465 -121 -135 -265 -287 -237 -250 114 154 231 358 357 622
l77 162 96 -35 c53 -19 97 -34 99 -34z m-4907 -237 c141 -188 316 -341 482
-423 72 -35 947 -329 987 -331 8 0 10 -3 4 -5 -23 -10 -558 88 -692 126 -352
100 -635 224 -894 392 -59 38 -112 76 -119 84 -9 12 3 36 67 134 44 66 82 120
85 120 4 0 40 -44 80 -97z"/>
<path d="M2973 8590 l-203 -5 -230 -175 c-195 -149 -231 -180 -240 -210 -8
-24 -10 -948 -8 -2977 l3 -2942 23 -23 23 -23 2044 0 2044 0 23 23 23 23 -3
2992 c-3 2921 -4 2995 -23 3137 -18 129 -23 147 -45 168 l-25 22 -1602 -2
c-881 -1 -1693 -5 -1804 -8z"/>
<path d="M6572 8577 c-12 -13 -22 -35 -22 -49 0 -14 26 -100 58 -190 l57 -163
5 -2947 5 -2947 23 -23 23 -23 1873 0 c1829 0 1874 0 1895 19 l21 19 0 3016
c0 1659 -4 3021 -8 3027 -4 7 -81 73 -171 148 l-164 136 -1787 0 -1787 0 -21
-23z"/>
</g>
</svg>
