<?xml version="1.0" encoding="iso-8859-1"?>
<!-- Generator: Adobe Illustrator 16.0.0, SVG Export Plug-In . SVG Version: 6.00 Build 0)  -->
<!DOCTYPE svg PUBLIC "-//W3C//DTD SVG 1.1//EN" "http://www.w3.org/Graphics/SVG/1.1/DTD/svg11.dtd">
<svg version="1.1" id="Capa_1" xmlns="http://www.w3.org/2000/svg" xmlns:xlink="http://www.w3.org/1999/xlink" x="0px" y="0px"
	 width="30" height="30" viewBox="0 0 561.543 561.542" style="enable-background:new 0 0 561.543 561.542;"
	 xml:space="preserve">
<g>
	<path d="M268.527,123.612h-1.386v-20.336h1.386V123.612z M284.614,103.275h-1.381v20.336h1.381V103.275z M271.118,103.275h-0.698
		v20.336h0.698V103.275z M285.875,103.275h-0.69v20.336h0.69V103.275z M281.733,103.275h-0.698v20.336h0.698V103.275z
		 M278.323,103.275h-0.688v20.336h0.688V103.275z M274.233,103.275h-1.386v20.336h1.386V103.275z M280.284,103.275h-1.381v20.336
		h1.381V103.275z M275.39,103.275h-0.698v20.336h0.698V103.275z M287.723,103.275h-0.695v20.336h0.695V103.275z M290.836,103.275
		h-1.382v20.336h1.382V103.275z M291.988,103.275h-0.699v20.336h0.699V103.275z M358.546,213.549v332.182
		c0,3.183-1.909,6.071-4.868,7.295c-0.83,0.345-21.029,8.517-73.963,8.517c-52.21,0-70.282-7.771-72.169-8.662
		c-2.77-1.302-4.548-4.088-4.548-7.159V213.549c0-42.263,28.378-61.895,40.202-68.235V77.852c0-0.033-0.017-0.047-0.017-0.077V7.903
		c0-4.371,3.538-7.903,7.906-7.903h55.368c4.368,0,7.901,3.533,7.901,7.903v56.609c0,0.033,0.019,0.056,0.019,0.082v80.301
		C332.153,152.917,358.546,174.661,358.546,213.549z M259.006,56.679h39.544v-40.86h-39.544V56.679z M342.729,213.549
		c0-42.552-38.331-55.634-38.719-55.758c-3.253-1.066-5.446-4.096-5.446-7.514V85.685h-39.542v64.592c0,3.255-1.984,6.17-5.015,7.36
		c-1.404,0.565-35.188,14.657-35.188,55.912v326.464c7.771,2.096,26.236,5.718,60.898,5.718c35.11,0,54.666-3.715,63.011-5.862
		V213.549z M322.95,282.499c4.378,0,7.91,3.537,7.91,7.915v115.165c0,4.373-3.532,7.906-7.91,7.906h-87.529
		c-4.371,0-7.908-3.533-7.908-7.906V290.414c0-4.368,3.538-7.906,7.908-7.906h87.529V282.499z M315.044,298.325h-71.717v99.348
		h71.717V298.325z"/>
</g>
<g>
</g>
<g>
</g>
<g>
</g>
<g>
</g>
<g>
</g>
<g>
</g>
<g>
</g>
<g>
</g>
<g>
</g>
<g>
</g>
<g>
</g>
<g>
</g>
<g>
</g>
<g>
</g>
<g>
</g>
</svg>
