<svg width="16" height="16" viewBox="0 0 16 16" fill="none" xmlns="http://www.w3.org/2000/svg"><path d="M12 9.333c-.802 0-1.52.357-2.009.917L6.607 8.558a2.68 2.68 0 000-1.116L9.991 5.75c.489.56 1.207.917 2.009.917a2.667 2.667 0 10-2.607-2.109L6.009 6.25A2.658 2.658 0 004 5.333a2.667 2.667 0 000 5.334c.802 0 1.52-.357 2.009-.917l3.384 1.692a2.666 2.666 0 105.274.558A2.667 2.667 0 0012 9.333zm0-6.666a1.333 1.333 0 110 2.666 1.333 1.333 0 010-2.666zM4 9.333a1.333 1.333 0 110-2.666 1.333 1.333 0 010 2.666zm8 4a1.333 1.333 0 110-2.666 1.333 1.333 0 010 2.666z" fill="#2AB0CD"/></svg>