<svg width="22" height="22" viewBox="0 0 22 22" xmlns="http://www.w3.org/2000/svg"><path fill-rule="evenodd" clip-rule="evenodd" d="M10.997 0h.006C17.068 0 22 4.935 22 11s-4.932 11-10.997 11c-2.237 0-4.312-.666-6.052-1.818L.723 21.534l1.371-4.087A10.919 10.919 0 010 11C0 4.934 4.932 0 10.997 0zm4.248 17.086c.84-.182 1.893-.803 2.158-1.553.266-.75.266-1.39.189-1.526-.062-.108-.21-.179-.429-.284l-.186-.091c-.323-.161-1.895-.938-2.192-1.041-.291-.11-.569-.072-.789.24l-.125.175c-.265.373-.521.733-.734.963-.194.206-.51.232-.776.122a8.428 8.428 0 00-.099-.04c-.42-.17-1.352-.547-2.48-1.55-.952-.848-1.598-1.902-1.785-2.219-.184-.317-.025-.503.121-.675l.008-.01c.095-.116.186-.213.278-.311.066-.07.133-.141.2-.22l.03-.033c.144-.166.23-.265.327-.47.11-.214.031-.434-.047-.596-.054-.114-.387-.922-.673-1.616l-.315-.764c-.214-.51-.376-.53-.699-.543l-.03-.002a6.505 6.505 0 00-.338-.01c-.421 0-.86.123-1.125.394l-.03.03C5.366 5.8 4.61 6.57 4.61 8.102c0 1.536 1.09 3.023 1.292 3.298l.014.02.069.097c.411.596 2.417 3.5 5.408 4.74 2.527 1.048 3.278.95 3.853.828z" fill="#4CAF50"/></svg>