<svg width="40" height="40" viewBox="0 0 40 40" fill="none" xmlns="http://www.w3.org/2000/svg"><path d="M27.955 23.295a11.206 11.206 0 00-4.275-2.681 6.502 6.502 0 002.824-5.36A6.511 6.511 0 0020 8.75a6.511 6.511 0 00-6.504 6.504 6.502 6.502 0 002.824 5.36 11.206 11.206 0 00-4.275 2.681A11.176 11.176 0 008.75 31.25h1.758c0-5.234 4.258-9.492 9.492-9.492 5.234 0 9.492 4.258 9.492 9.492h1.758c0-3.005-1.17-5.83-3.295-7.955zM20 20a4.751 4.751 0 01-4.746-4.746A4.751 4.751 0 0120 10.508a4.751 4.751 0 014.746 4.746A4.751 4.751 0 0120 20z" fill="#929292"/><path d="M1.25 13.75v-7.5a5 5 0 015-5h7.5M1.25 26.25v7.5a5 5 0 005 5h7.5M38.75 26.25v7.5a5 5 0 01-5 5h-7.5M38.75 13.75v-7.5a5 5 0 00-5-5h-7.5" stroke="#929292" stroke-width="1.5" stroke-linecap="square"/></svg>