<svg width="60" height="60" viewBox="0 0 60 60" xmlns="http://www.w3.org/2000/svg"><path d="M30 0C13.43 0 0 13.43 0 30s13.43 30 30 30c16.568 0 30-13.432 30-30C60 13.43 46.568 0 30 0zm0 56.25C15.503 56.25 3.75 44.497 3.75 30S15.503 3.75 30 3.75 56.25 15.503 56.25 30 44.497 56.25 30 56.25z" fill="#FFB947"/><path d="M43.688 19.487l-19.29 19.117-8.027-7.867a1.904 1.904 0 00-2.678 0 1.86 1.86 0 000 2.651l9.373 9.186c.769.677 1.918.752 2.678 0l20.623-20.436a1.863 1.863 0 000-2.651 1.91 1.91 0 00-2.68 0z" fill="#FFB947"/></svg>