<svg width="20" height="22" viewBox="0 0 20 22"
     xmlns="http://www.w3.org/2000/svg">
    <path
        d="M19.796 12.736c.65-5.52-.313-9.005-2.051-10.58v-.002C14.94-.537 5.466-.936 2.11 2.275.602 3.845.071 6.151.013 9.005c-.058 2.855-.127 8.202 4.819 9.653h.005l-.005 2.215s-.034.898.535 1.078c.651.213.946-.204 2.97-2.64 3.386.296 5.986-.382 6.281-.48.684-.232 4.552-.747 5.178-6.095zM8.67 17.752s-2.143 2.692-2.809 3.39c-.218.228-.457.207-.454-.244 0-.296.017-3.678.017-3.678-4.194-1.21-3.947-5.764-3.901-8.146.045-2.383.478-4.335 1.754-5.65C6.223.645 14.53 1.266 16.646 3.27c2.587 2.31 1.666 8.839 1.671 9.061-.531 4.464-3.666 4.747-4.242 4.94-.247.083-2.533.675-5.404.482z"
        fill="#7D3DAF"/>
    <path
        d="M9.857 3.948c-.35 0-.35.55 0 .554 2.715.02 4.952 1.928 4.976 5.425 0 .37.536.365.532-.004-.03-3.77-2.472-5.954-5.508-5.975z"
        fill="#7D3DAF"/>
    <path
        d="M13.428 9.347c-.008.365.528.382.532.013.045-2.078-1.227-3.79-3.617-3.97-.35-.026-.386.528-.037.554 2.072.159 3.164 1.584 3.122 3.403zM12.856 11.711c-.45-.262-.907-.099-1.096.159l-.395.515c-.201.262-.577.228-.577.228-2.74-.73-3.472-3.62-3.472-3.62s-.034-.39.217-.6l.494-.412c.248-.198.404-.674.152-1.142-.672-1.225-1.124-1.647-1.354-1.971-.242-.305-.606-.374-.984-.168h-.008c-.786.464-1.647 1.331-1.372 2.224.47.942 1.334 3.943 4.086 6.21 1.294 1.073 3.341 2.172 4.21 2.426l.009.012c.856.288 1.689-.613 2.133-1.43v-.005c.198-.395.132-.769-.156-1.014-.511-.501-1.282-1.055-1.887-1.412z"
        fill="#7D3DAF"/>
    <path
        d="M10.717 7.434c.874.052 1.298.511 1.343 1.456.016.369.548.343.532-.026-.058-1.233-.696-1.92-1.846-1.984-.35-.02-.382.533-.029.554z"
        fill="#7D3DAF"/>
</svg>
