<svg width="16" height="16" viewBox="0 0 16 16" fill="none" xmlns="http://www.w3.org/2000/svg">
<path fill-rule="evenodd" clip-rule="evenodd" d="M16 8C16 12.4183 12.4183 16 8 16C3.58172 16 0 12.4183 0 8C0 3.58172 3.58172 0 8 0C12.4183 0 16 3.58172 16 8ZM9.06667 3.73333L8.53333 9.06667H7.46667L6.93333 3.73333H9.06667ZM9.06667 11.2C9.06667 10.6667 8.53333 10.1333 8 10.1333C7.46667 10.1333 6.93333 10.6667 6.93333 11.2C6.93333 11.7333 7.46667 12.2667 8 12.2667C8.53333 12.2667 9.06667 11.7333 9.06667 11.2Z" fill="#CF2020"/>
</svg>
