<svg width="20" height="15" viewBox="0 0 20 15" fill="none" xmlns="http://www.w3.org/2000/svg"><path d="M16.803 1H3.2C1.987 1 1 1.937 1 3.089v8.822C1 13.063 1.987 14 3.201 14H16.8C18.013 14 19 13.063 19 11.911V3.092C19.004 1.94 18.017 1 16.803 1zm1.195 10.911c0 .626-.536 1.135-1.195 1.135H3.2c-.66 0-1.195-.51-1.195-1.135V3.092c0-.625.536-1.134 1.195-1.134H16.8c.66 0 1.195.509 1.195 1.134v8.82h.004z" fill="#2AB0CD"/><path d="M12.352 7.39l4.402-3.746a.463.463 0 00.037-.675.524.524 0 00-.71-.036l-6.072 5.171-1.184-1.003c-.004-.004-.007-.007-.007-.011a.735.735 0 00-.082-.067L3.916 2.93a.521.521 0 00-.711.039.46.46 0 00.04.675L7.7 7.422l-4.436 3.941a.462.462 0 00-.022.675.528.528 0 00.711.025l4.503-3.997L9.678 9.1a.518.518 0 00.67-.003l1.255-1.068 4.477 4.037c.097.088.224.13.346.13.135 0 .265-.05.365-.148a.462.462 0 00-.018-.675L12.352 7.39z" fill="#2AB0CD"/><path d="M16.803 1H3.2C1.987 1 1 1.937 1 3.089v8.822C1 13.063 1.987 14 3.201 14H16.8C18.013 14 19 13.063 19 11.911V3.092C19.004 1.94 18.017 1 16.803 1zm1.195 10.911c0 .626-.536 1.135-1.195 1.135H3.2c-.66 0-1.195-.51-1.195-1.135V3.092c0-.625.536-1.134 1.195-1.134H16.8c.66 0 1.195.509 1.195 1.134v8.82h.004z" stroke="#2AB0CD" stroke-width=".5"/><path d="M12.352 7.39l4.402-3.746a.463.463 0 00.037-.675.524.524 0 00-.71-.036l-6.072 5.171-1.184-1.003c-.004-.004-.007-.007-.007-.011a.735.735 0 00-.082-.067L3.916 2.93a.521.521 0 00-.711.039.46.46 0 00.04.675L7.7 7.422l-4.436 3.941a.462.462 0 00-.022.675.528.528 0 00.711.025l4.503-3.997L9.678 9.1a.518.518 0 00.67-.003l1.255-1.068 4.477 4.037c.097.088.224.13.346.13.135 0 .265-.05.365-.148a.462.462 0 00-.018-.675L12.352 7.39z" stroke="#2AB0CD" stroke-width=".5"/></svg>