<svg width="19" height="26" viewBox="0 0 19 26" fill="none" xmlns="http://www.w3.org/2000/svg"><path d="M4.5 10.5v4M3.25 16a1.25 1.25 0 112.5 0v8a1.25 1.25 0 11-2.5 0v-8zM15 10.5v4M13.75 16a1.25 1.25 0 112.5 0v8a1.25 1.25 0 11-2.5 0v-8zM8.25 5.5c0 2.771-1.813 4.75-3.75 4.75S.75 8.271.75 5.5 2.563.75 4.5.75 8.25 2.729 8.25 5.5z" stroke="#626262" stroke-width="1.5"/><path d="M12.75 1a.75.75 0 00-1.5 0h1.5zm6 0a.75.75 0 00-1.5 0h1.5zm-1.5 0v6h1.5V1h-1.5zm-4.5 6V1h-1.5v6h1.5zM15 9.25A2.25 2.25 0 0112.75 7h-1.5A3.75 3.75 0 0015 10.75v-1.5zM17.25 7A2.25 2.25 0 0115 9.25v1.5A3.75 3.75 0 0018.75 7h-1.5z" fill="#626262"/><path d="M15 1v6" stroke="#626262" stroke-width="1.5" stroke-linecap="round"/></svg>