<svg width="28" height="28" fill="none" xmlns="http://www.w3.org/2000/svg"><path d="M14.53 4.47a.75.75 0 10-1.06 1.06l1.06-1.06zM17 8l.61.436a.75.75 0 00-.08-.966L17 8zm-3.11 3.064a.75.75 0 101.22.872l-1.22-.872zM2.53.47a.75.75 0 00-1.06 1.06L2.53.47zm2.94 5.06a.75.75 0 001.06-1.06L5.47 5.53zm1.06-4A.75.75 0 005.47.47l1.06 1.06zM1.47 4.47a.75.75 0 001.06 1.06L1.47 4.47zm13.06 14a.75.75 0 10-1.06 1.06l1.06-1.06zm2.94 5.06a.75.75 0 101.06-1.06l-1.06 1.06zm1.06-4a.75.75 0 10-1.06-1.06l1.06 1.06zm-5.06 2.94a.75.75 0 101.06 1.06l-1.06-1.06zm0-16.94l3 3 1.06-1.06-3-3-1.06 1.06zm2.92 2.034l-2.5 3.5 1.22.872 2.5-3.5-1.22-.872zM20.25 8A3.75 3.75 0 0024 11.75v-1.5A2.25 2.25 0 0121.75 8h-1.5zM24 11.75A3.75 3.75 0 0027.75 8h-1.5A2.25 2.25 0 0124 10.25v1.5zM27.75 8A3.75 3.75 0 0024 4.25v1.5A2.25 2.25 0 0126.25 8h1.5zM24 4.25A3.75 3.75 0 0020.25 8h1.5A2.25 2.25 0 0124 5.75v-1.5zM.25 24A3.75 3.75 0 004 27.75v-1.5A2.25 2.25 0 011.75 24H.25zM4 27.75A3.75 3.75 0 007.75 24h-1.5A2.25 2.25 0 014 26.25v1.5zM7.75 24A3.75 3.75 0 004 20.25v1.5A2.25 2.25 0 016.25 24h1.5zM4 20.25A3.75 3.75 0 00.25 24h1.5A2.25 2.25 0 014 21.75v-1.5zm.75.75C4.75 14.392 9.853 8.75 17 8.75v-1.5C8.98 7.25 3.25 13.608 3.25 21h1.5zM1.47 1.53l2 2 1.06-1.06-2-2-1.06 1.06zm2 2l2 2 1.06-1.06-2-2-1.06 1.06zm2-3.06l-2 2 1.06 1.06 2-2L5.47.47zm-2 2l-2 2 1.06 1.06 2-2-1.06-1.06zm10 17.06l2 2 1.06-1.06-2-2-1.06 1.06zm2 2l2 2 1.06-1.06-2-2-1.06 1.06zm2-3.06l-2 2 1.06 1.06 2-2-1.06-1.06zm-2 2l-2 2 1.06 1.06 2-2-1.06-1.06z" fill="#626262"/></svg>