<svg width="26" height="26" viewBox="0 0 26 26" fill="none" xmlns="http://www.w3.org/2000/svg">
<path d="M24.3502 22.7723L25.7533 21.7101C26.2201 21.3567 25.9802 20.5185 25.4032 20.5185H23.6689C23.4108 20.5185 23.1822 20.4143 23.1024 20.1586L22.5665 18.4288C22.4773 18.143 22.2387 18 22 18C21.7613 18 21.5227 18.143 21.4335 18.4288L20.8976 20.1586C20.8179 20.4143 20.5892 20.5185 20.3311 20.5185H18.5968C18.0198 20.5185 17.7799 21.3567 18.2467 21.7101L19.6498 22.7723C19.8585 22.9303 19.9459 23.2105 19.8662 23.4662L19.3016 25.1848C19.2778 25.2613 19.2684 25.3361 19.2711 25.4074C19.2886 25.869 19.8425 26.1847 20.2468 25.8787L21.6499 24.8162C21.7543 24.7372 21.8771 24.6977 22 24.6977C22.1229 24.6977 22.2457 24.7372 22.3501 24.8162L23.7532 25.8787C24.1576 26.1847 24.7088 25.869 24.7288 25.4074C24.7319 25.3361 24.7227 25.2613 24.6989 25.1848L24.1338 23.4662C24.0541 23.2105 24.1415 22.9303 24.3502 22.7723Z" fill="#626262"/>
<path d="M6.35021 22.7723L7.75332 21.7101C8.22014 21.3567 7.98024 20.5185 7.4032 20.5185H5.66889C5.41082 20.5185 5.18217 20.4143 5.1024 20.1586L4.56649 18.4288C4.47732 18.143 4.23868 18 4 18C3.76132 18 3.52268 18.143 3.43351 18.4288L2.8976 20.1586C2.81788 20.4143 2.58918 20.5185 2.33111 20.5185H0.5968C0.0197647 20.5185 -0.220141 21.3567 0.246682 21.7101L1.64979 22.7723C1.85854 22.9303 1.94593 23.2105 1.86616 23.4662L1.30165 25.1848C1.27779 25.2613 1.26838 25.3361 1.27106 25.4074C1.28856 25.869 1.84249 26.1847 2.24682 25.8787L3.64988 24.8162C3.75426 24.7372 3.87713 24.6977 4 24.6977C4.12287 24.6977 4.24574 24.7372 4.35012 24.8162L5.75322 25.8787C6.15755 26.1847 6.70885 25.869 6.72885 25.4074C6.73191 25.3361 6.72273 25.2613 6.69887 25.1848L6.13384 23.4662C6.05407 23.2105 6.14146 22.9303 6.35021 22.7723Z" fill="#626262"/>
<path d="M15.3502 18.7723L16.7533 17.7101C17.2201 17.3567 16.9802 16.5185 16.4032 16.5185H14.6689C14.4108 16.5185 14.1822 16.4143 14.1024 16.1586L13.5665 14.4288C13.4773 14.143 13.2387 14 13 14C12.7613 14 12.5227 14.143 12.4335 14.4288L11.8976 16.1586C11.8179 16.4143 11.5892 16.5185 11.3311 16.5185H9.5968C9.01976 16.5185 8.77986 17.3567 9.24668 17.7101L10.6498 18.7723C10.8585 18.9303 10.9459 19.2105 10.8662 19.4662L10.3016 21.1848C10.2778 21.2613 10.2684 21.3361 10.2711 21.4074C10.2886 21.869 10.8425 22.1847 11.2468 21.8787L12.6499 20.8162C12.7543 20.7372 12.8771 20.6977 13 20.6977C13.1229 20.6977 13.2457 20.7372 13.3501 20.8162L14.7532 21.8787C15.1576 22.1847 15.7088 21.869 15.7288 21.4074C15.7319 21.3361 15.7227 21.2613 15.6989 21.1848L15.1338 19.4662C15.0541 19.2105 15.1415 18.9303 15.3502 18.7723Z" fill="#626262"/>
<path d="M17.75 5.5C17.75 8.12335 15.6234 10.25 13 10.25C10.3766 10.25 8.25 8.12335 8.25 5.5C8.25 2.87665 10.3766 0.75 13 0.75C15.6234 0.75 17.75 2.87665 17.75 5.5Z" stroke="#626262" stroke-width="1.5"/>
<path d="M21 14.1989C19.074 11.9357 16.2047 10.5 13 10.5C9.79532 10.5 6.92595 11.9357 5 14.1989" stroke="#626262" stroke-width="1.5" stroke-linecap="round"/>
</svg>
