<svg width="26" height="26" viewBox="0 0 26 26" fill="none" xmlns="http://www.w3.org/2000/svg"><path d="M12.216 8.132c.487-.54.784-1.255.784-2.038a3.05 3.05 0 00-3.047-3.047c-.813 0-1.584.314-2.172.884a2.986 2.986 0 00-.112 4.21c-1.76.853-3.099 2.708-3.099 4.91v1.523c0 .42.341.762.762.762h9.242c.42 0 .762-.341.762-.762v-1.523c0-2.19-1.331-4.062-3.12-4.92zM9.953 4.57c.84 0 1.524.684 1.524 1.524s-.684 1.523-1.524 1.523c-.853 0-1.574-.697-1.574-1.523s.72-1.524 1.574-1.524zm3.86 9.242h-7.72v-.761c0-2.12 1.768-3.91 3.86-3.91 2.092 0 3.86 1.79 3.86 3.91v.761z" fill="#FFB947"/><path d="M19.906 13.813V.761A.762.762 0 0019.145 0H5.963a2.27 2.27 0 00-1.616.67L.67 4.346A2.27 2.27 0 000 5.963v17.752c0 .42.341.762.762.762H15.88A6.068 6.068 0 0019.906 26 6.1 6.1 0 0026 19.906a6.1 6.1 0 00-6.094-6.093zM4.57 2.6v1.97H2.6L4.57 2.6zM1.523 22.953V6.093h3.809c.42 0 .762-.34.762-.761V1.523h12.289v12.482a6.119 6.119 0 00-3.754 2.857c-.018-.001-.036-.003-.055-.003H5.332a.762.762 0 00-.762.762c0 .42.341.757.762.757h8.673a6.126 6.126 0 00-.193 1.528h-8.48a.762.762 0 000 1.524h8.673c.14.54.352 1.052.625 1.523H1.524zm18.383 1.524c-2.52 0-4.57-2.05-4.57-4.57 0-2.52 2.05-4.571 4.57-4.571 2.52 0 4.57 2.05 4.57 4.57 0 2.52-2.05 4.57-4.57 4.57z" fill="#FFB947"/><path d="M22.73 17.844a.762.762 0 00-1.077 0l-2.508 2.508-.985-.984a.762.762 0 10-1.078 1.077l1.524 1.523a.76.76 0 001.077 0l3.047-3.047a.762.762 0 000-1.077z" fill="#FFB947"/></svg>